<?xml version="1.0" encoding="UTF-8"?>
<!-- Created with Inkscape (http://www.inkscape.org/) -->
<svg width="197.07mm" height="197.07mm" version="1.1" viewBox="0 0 197.07 197.07" xmlns="http://www.w3.org/2000/svg" xmlns:xlink="http://www.w3.org/1999/xlink">
 <g transform="translate(0 29.405)">
  <g transform="translate(-72.517 -102.03)">
   <g>
    <path d="m138 107.22s-16.34 0.0332-17.645-5e-5c-2.1308-0.0542-4.3694-4.9857-14.877-5.1823-12.729-0.2382-19.086 7.0994-22.784 15.726-1.2041 2.8089-1.5887 6.8294-2.2969 9.8023-2.0188 8.4745-4.9966 16.397-6.0573 25.044-1.4723 12.002-3.1912 24.712-0.08935 36.276 1.792 6.6809 4.4452 13.805 11.072 15.789 6.8835 2.0606 13.56 0.49283 19.606-4.2148 9.0321-7.0327 20.257-29.359 21.235-29.444 1.017-0.0886 11.838-0.0894 11.838-0.0894s10.821 8e-4 11.838 0.0894c0.97795 0.0852 12.203 22.411 21.235 29.444 6.046 4.7076 12.723 6.2753 19.606 4.2148 6.6265-1.9836 9.2798-9.1079 11.072-15.789 3.1019-11.564 1.383-24.274-0.0893-36.276-1.0607-8.6468-4.0385-16.57-6.0573-25.044-0.70822-2.9729-1.0928-6.9934-2.2969-9.8023-3.6979-8.6262-10.055-15.964-22.784-15.726-10.507 0.19663-12.746 5.1281-14.877 5.1823-1.3056 0.0332-17.645 5e-5 -17.645 5e-5z" fill="#2c2c33"/>
    <path d="m121.94 107.23-1.6785-9e-3 0.68945 0.72461s5.2535 6.6738 5.2273 15.632c-0.0141 4.818-3.0803 10.191-7.3848 14.256-4.3045 4.0652-9.805 6.7647-14.262 6.6074-16.819-0.59367-23.183-16.507-23.183-16.507l-0.6377-1.846-0.52017 2.3225 0.33203 0.94336s5.7661 16.444 23.939 17.085c5.2899 0.18665 11.113-2.8155 15.705-7.1523 4.5921-4.3368 7.9952-10.065 8.0117-15.703 0.029-9.8856-5.5508-15.626-5.5508-15.626zm32.113 0 1.6785-9e-3 -0.68945 0.72461s-5.2535 6.6738-5.2273 15.632c0.0141 4.818 3.0803 10.191 7.3848 14.256 4.3045 4.0652 9.805 6.7647 14.262 6.6074 16.819-0.59367 23.183-16.507 23.183-16.507l0.63771-1.846 0.52016 2.3225-0.33203 0.94336s-5.7661 16.444-23.939 17.085c-5.2899 0.18665-11.113-2.8155-15.705-7.1523-4.5921-4.3368-7.9952-10.065-8.0117-15.703-0.029-9.8856 5.5508-15.626 5.5508-15.626z" color="#000000" fill="#08080b" stroke-linecap="square" style="-inkscape-stroke:none"/>
    <path id="use19492-2" d="m128.53 154.94c0.55603 2.1821 0.33395 4.6107-0.49123 6.8724-0.52747 1.4458-0.97137 2.1409-1.7138 3.1344-0.74245 0.99347-1.7756 1.9299-3.3078 2.8474-0.93897 0.56229-1.8764 1.1084-3.023 1.4752-1.1466 0.36683-2.3525 0.49914-3.5915 0.47084-2.478-0.0566-2.7124-0.27068-4.3312-0.84876s-3.032-1.6744-3.8199-2.4564c-0.54024-0.53616-1.0981-1.0145-2.2785-2.4307-1.1522-1.3824-2.4025-3.9936-2.4025-3.9936s0.75664 4.3083 4.1478 7.316c1.6956 1.5038 3.6761 2.8631 6.9648 3.2475 3.2887 0.38445 5.4362 0.10101 8.7332-1.7645 3.1412-1.81 4.7152-4.3257 5.5938-6.6374 0.88552-2.33 1.0884-5.4506 0.52409-7.6654-1.017-4.5076-4.6928-7.3551-4.6928-7.3551s2.5766 3.4239 3.6886 7.7881z" color="#000000" fill="#08080b" style="-inkscape-stroke:none"/>
    <path id="use19492-0-0" d="m109.04 155.93c0.19771-0.97367 0.41397-1.4602 0.79227-2.166 0.37826-0.70559 0.94762-1.4029 1.8374-2.1362 0.54526-0.44934 1.0911-0.88825 1.7877-1.2328 0.69665-0.34458 1.45-0.58039 2.2474-0.64638 1.5873-0.13137 1.7966-0.14424 2.8857 0.0689 1.089 0.21299 1.8166 0.51093 2.8093 1.0581s2.2601 1.282 3.5203 2.9085c0 0-0.85048-1.8798-3.3049-3.4732-1.2271-0.79676-2.7566-1.3315-4.8929-1.2603-2.1365 0.0713-3.48 0.45901-5.4051 1.9673-1.8309 1.458-2.5935 3.2154-2.9318 4.7758-0.3409 1.5726-0.23055 4.0658 0.34292 5.4252 1.0834 2.7797 3.1901 4.0824 3.1901 4.0824s-1.4885-1.732-2.3361-3.7412c-0.84763-2.0091-0.85116-4.107-0.54218-5.6302z" color="#000000" fill="#6b6b73" style="-inkscape-stroke:none"/>
   </g>
   <use transform="translate(43.328)" width="100%" height="100%" xlink:href="#use19492-2"/>
   <use transform="translate(43)" width="100%" height="100%" xlink:href="#use19492-0-0"/>
   <path id="path9853-3" d="m91.694 123.61h7.377" fill="none" stroke="#6b6b73" stroke-linecap="round" stroke-width=".965"/>
   <use transform="translate(17.082 -5.2751)" width="100%" height="100%" xlink:href="#path9853-3"/>
   <use transform="rotate(90 104.92 120.26)" width="100%" height="100%" xlink:href="#path9853-3"/>
   <use transform="rotate(90 96.769 132.99)" width="100%" height="100%" xlink:href="#path9853-3"/>
   <g fill="none" stroke-linecap="round">
    <g stroke="#08080b">
     <path d="m99.965 135.28s-0.08088-6.8025 0.083-6.9784 3.5853-3.9999 3.8194-3.9853c0.24311 0.0152 2.274 1.9359 2.274 1.9359"/>
     <path d="m116.14 124.54s-6.8025 0.0809-6.9784-0.083c-0.17587-0.16388-3.9999-3.5853-3.9853-3.8194 0.0152-0.24311 1.9359-2.274 1.9359-2.274"/>
     <path d="m107.74 107.06s0.0809 6.8025-0.083 6.9784c-0.16388 0.17587-3.5853 3.9999-3.8194 3.9853-0.24311-0.0152-2.274-1.9359-2.274-1.9359"/>
     <path d="m91.693 117.42s6.8025-0.0809 6.9784 0.083c0.17587 0.16388 3.9999 3.5853 3.9853 3.8194-0.0152 0.24311-1.9359 2.274-1.9359 2.274"/>
    </g>
    <g stroke="#6b6b73" stroke-width=".9">
     <path d="m158.47 122.4s-0.41551-1.5598 0.77174-2.8018c1.1872-1.2421 2.6974-0.92576 2.6974-0.92576"/>
     <path d="m168.69 131.88s-0.41551-1.5598 0.77174-2.8018c1.1872-1.2421 2.6974-0.92576 2.6974-0.92576"/>
     <path d="m178.64 122.4s-0.41551-1.5598 0.77174-2.8018c1.1872-1.2421 2.6974-0.92576 2.6974-0.92576"/>
     <path d="m168.69 111.91s-0.41551-1.5598 0.77174-2.8018c1.1872-1.2421 2.6974-0.92576 2.6974-0.92576"/>
    </g>
   </g>
   <g fill="#08080b">
    <path d="m162.98 117.43s1.4001 1.0582 1.9784 2.1472c0.34421 0.64833 0.68445 1.8671 0.68801 2.581 4e-3 0.71388-0.2433 1.4535-1.0078 2.2422-0.77294 0.79736-1.7483 1.1374-2.4643 1.1681-0.71506 0.0307-1.9148-0.10696-2.5321-0.37688-1.2347-0.53984-1.8091-1.3015-1.8091-1.3015s0.73952 1.6178 2.1999 2.2564c0.73021 0.31927 1.5679 0.4975 2.4962 0.38094 0.9283-0.11657 1.9016-0.52553 2.8027-1.4552 0.90959-0.93833 1.2841-1.9611 1.2793-2.918-5e-3 -0.95685-0.266-1.8756-0.72092-2.6073-0.90985-1.4634-2.9103-2.117-2.9103-2.117z" color="#000000" style="-inkscape-stroke:none"/>
    <path d="m182.82 117.43s1.4001 1.0582 1.9784 2.1472c0.34421 0.64833 0.68445 1.8671 0.68801 2.581 4e-3 0.71388-0.2433 1.4535-1.0078 2.2422-0.77294 0.79736-1.7483 1.1374-2.4643 1.1681-0.71506 0.0307-1.9148-0.10696-2.5321-0.37688-1.2347-0.53984-1.8091-1.3015-1.8091-1.3015s0.73952 1.6178 2.1999 2.2564c0.73021 0.31927 1.5679 0.4975 2.4962 0.38094 0.9283-0.11657 1.9016-0.52553 2.8027-1.4552 0.90959-0.93833 1.2841-1.9611 1.2793-2.918-5e-3 -0.95685-0.266-1.8756-0.72092-2.6073-0.90985-1.4634-2.9103-2.117-2.9103-2.117z" color="#000000" style="-inkscape-stroke:none"/>
    <path d="m173.33 126.8s1.4001 1.0582 1.9784 2.1472c0.34421 0.64833 0.68445 1.8671 0.68801 2.581 4e-3 0.71388-0.2433 1.4535-1.0078 2.2422-0.77294 0.79736-1.7483 1.1374-2.4643 1.1681-0.71506 0.0307-1.9148-0.10696-2.5321-0.37688-1.2347-0.53984-1.8091-1.3015-1.8091-1.3015s0.73952 1.6178 2.1999 2.2564c0.73021 0.31927 1.5679 0.4975 2.4962 0.38094 0.9283-0.11657 1.9016-0.52553 2.8027-1.4552 0.90959-0.93833 1.2841-1.9611 1.2793-2.918-5e-3 -0.95685-0.266-1.8756-0.72092-2.6073-0.90985-1.4634-2.9103-2.117-2.9103-2.117z" color="#000000" style="-inkscape-stroke:none"/>
    <path d="m173.33 107.25s1.4001 1.0582 1.9784 2.1472c0.34421 0.64833 0.68445 1.8671 0.68801 2.581 4e-3 0.71388-0.2433 1.4535-1.0078 2.2422-0.77294 0.79736-1.7483 1.1374-2.4643 1.1681-0.71506 0.0307-1.9148-0.10696-2.5321-0.37688-1.2347-0.53984-1.8091-1.3015-1.8091-1.3015s0.73952 1.6178 2.1999 2.2564c0.73021 0.31927 1.5679 0.4975 2.4962 0.38094 0.9283-0.11657 1.9016-0.52553 2.8027-1.4552 0.90959-0.93833 1.2841-1.9611 1.2793-2.918-5e-3 -0.95685-0.266-1.8756-0.72092-2.6073-0.90985-1.4634-2.9103-2.117-2.9103-2.117z" color="#000000" style="-inkscape-stroke:none"/>
   </g>
   <path d="m186.88 149.42c0.21232-0.60476 4.2735-6.2799 5.1118-6.3057 0.83839-0.0258 5.1142 9.2328 6.7637 14.454 0.82476 2.6107 1.7469 6.0062 1.9767 9.7068s0.24451 3.559-0.17607 7.5873c-0.42058 4.0283-1.3846 10.101-3.504 14.62s-8.0756 12.575-9.0433 11.799 1.8355-2.702 3.9524-7.2792c2.1168-4.5773 3.4764-9.8956 3.9887-14.84 0.51223-4.9449 0.0458-10.889-1.2229-16.073-0.64568-2.6381-1.9317-5.7044-3.5308-8.4136s-4.4223-4.9531-4.3161-5.2554z" fill="#6b6b73"/>
   <path d="m98.105 155.46c-0.44907 0.0736-6.5724 14.847-8.6728 21.779s-4.4465 18.469-4.1991 19.623c0.24731 1.1537 2.5728 3.8413 3.6603 3.4874 0.54372-0.17693 0.79088-3.6442 1.4807-8.0376 0.68986-4.3934 1.8224-9.7128 2.8355-13.35 1.0131-3.6373 2.4566-8.3642 4.0127-12.936 0.78152-2.296 1.675-4.6151 2.4697-6.3204 0.79476-1.7052 1.4908-2.7967 1.4175-2.8674-0.29337-0.28313-2.5554-1.4513-3.0045-1.3777z" fill="#6b6b73"/>
  </g>
  <g transform="translate(-6.4096 -67.3)">
   <g>
    <path d="m138 107.22s-16.34 0.0332-17.645-5e-5c-2.1308-0.0542-4.3694-4.9857-14.877-5.1823-12.729-0.2382-19.086 7.0994-22.784 15.726-1.2041 2.8089-1.5887 6.8294-2.2969 9.8023-2.0188 8.4745-4.9966 16.397-6.0573 25.044-1.4723 12.002-3.1912 24.712-0.08935 36.276 1.792 6.6809 4.4452 13.805 11.072 15.789 6.8835 2.0606 13.56 0.49283 19.606-4.2148 9.0321-7.0327 20.257-29.359 21.235-29.444 1.017-0.0886 11.838-0.0894 11.838-0.0894s10.821 8e-4 11.838 0.0894c0.97795 0.0852 12.203 22.411 21.235 29.444 6.046 4.7076 12.723 6.2753 19.606 4.2148 6.6265-1.9836 9.2798-9.1079 11.072-15.789 3.1019-11.564 1.383-24.274-0.0893-36.276-1.0607-8.6468-4.0385-16.57-6.0573-25.044-0.70822-2.9729-1.0928-6.9934-2.2969-9.8023-3.6979-8.6262-10.055-15.964-22.784-15.726-10.507 0.19663-12.746 5.1281-14.877 5.1823-1.3056 0.0332-17.645 5e-5 -17.645 5e-5z" fill="#5688c7"/>
    <path d="m121.94 107.23-1.6785-9e-3 0.68945 0.72461s5.2535 6.6738 5.2273 15.632c-0.0141 4.818-3.0803 10.191-7.3848 14.256-4.3045 4.0652-9.805 6.7647-14.262 6.6074-16.819-0.59367-23.183-16.507-23.183-16.507l-0.6377-1.846-0.52017 2.3225 0.33203 0.94336s5.7661 16.444 23.939 17.085c5.2899 0.18665 11.113-2.8155 15.705-7.1523 4.5921-4.3368 7.9952-10.065 8.0117-15.703 0.029-9.8856-5.5508-15.626-5.5508-15.626zm32.113 0 1.6785-9e-3 -0.68945 0.72461s-5.2535 6.6738-5.2273 15.632c0.0141 4.818 3.0803 10.191 7.3848 14.256 4.3045 4.0652 9.805 6.7647 14.262 6.6074 16.819-0.59367 23.183-16.507 23.183-16.507l0.63771-1.846 0.52016 2.3225-0.33203 0.94336s-5.7661 16.444-23.939 17.085c-5.2899 0.18665-11.113-2.8155-15.705-7.1523-4.5921-4.3368-7.9952-10.065-8.0117-15.703-0.029-9.8856 5.5508-15.626 5.5508-15.626z" color="#000000" fill="#1d499b" stroke-linecap="square" style="-inkscape-stroke:none"/>
    <path id="use19492" d="m128.53 154.94c0.55603 2.1821 0.33395 4.6107-0.49123 6.8724-0.52747 1.4458-0.97137 2.1409-1.7138 3.1344-0.74245 0.99347-1.7756 1.9299-3.3078 2.8474-0.93897 0.56229-1.8764 1.1084-3.023 1.4752-1.1466 0.36683-2.3525 0.49914-3.5915 0.47084-2.478-0.0566-2.7124-0.27068-4.3312-0.84876s-3.032-1.6744-3.8199-2.4564c-0.54024-0.53616-1.0981-1.0145-2.2785-2.4307-1.1522-1.3824-2.4025-3.9936-2.4025-3.9936s0.75664 4.3083 4.1478 7.316c1.6956 1.5038 3.6761 2.8631 6.9648 3.2475 3.2887 0.38445 5.4362 0.10101 8.7332-1.7645 3.1412-1.81 4.7152-4.3257 5.5938-6.6374 0.88552-2.33 1.0884-5.4506 0.52409-7.6654-1.017-4.5076-4.6928-7.3551-4.6928-7.3551s2.5766 3.4239 3.6886 7.7881z" color="#000000" fill="#1d499b" style="-inkscape-stroke:none"/>
    <path id="use19492-0" d="m109.04 155.93c0.19771-0.97367 0.41397-1.4602 0.79227-2.166 0.37826-0.70559 0.94762-1.4029 1.8374-2.1362 0.54526-0.44934 1.0911-0.88825 1.7877-1.2328 0.69665-0.34458 1.45-0.58039 2.2474-0.64638 1.5873-0.13137 1.7966-0.14424 2.8857 0.0689 1.089 0.21299 1.8166 0.51093 2.8093 1.0581s2.2601 1.282 3.5203 2.9085c0 0-0.85048-1.8798-3.3049-3.4732-1.2271-0.79676-2.7566-1.3315-4.8929-1.2603-2.1365 0.0713-3.48 0.45901-5.4051 1.9673-1.8309 1.458-2.5935 3.2154-2.9318 4.7758-0.3409 1.5726-0.23055 4.0658 0.34292 5.4252 1.0834 2.7797 3.1901 4.0824 3.1901 4.0824s-1.4885-1.732-2.3361-3.7412c-0.84763-2.0091-0.85116-4.107-0.54218-5.6302z" color="#000000" fill="#94bae1" style="-inkscape-stroke:none"/>
   </g>
   <use transform="translate(43.328)" width="100%" height="100%" xlink:href="#use19492"/>
   <use transform="translate(43)" width="100%" height="100%" xlink:href="#use19492-0"/>
   <path id="path9853" d="m91.694 123.61h7.377" fill="none" stroke="#94bae1" stroke-linecap="round" stroke-width=".965"/>
   <use transform="translate(17.082 -5.2751)" width="100%" height="100%" xlink:href="#path9853"/>
   <use transform="rotate(90 104.92 120.26)" width="100%" height="100%" xlink:href="#path9853"/>
   <use transform="rotate(90 96.769 132.99)" width="100%" height="100%" xlink:href="#path9853"/>
   <g fill="none" stroke-linecap="round">
    <g stroke="#1d499b">
     <path d="m99.965 135.28s-0.08088-6.8025 0.083-6.9784 3.5853-3.9999 3.8194-3.9853c0.24311 0.0152 2.274 1.9359 2.274 1.9359"/>
     <path d="m116.14 124.54s-6.8025 0.0809-6.9784-0.083c-0.17587-0.16388-3.9999-3.5853-3.9853-3.8194 0.0152-0.24311 1.9359-2.274 1.9359-2.274"/>
     <path d="m107.74 107.06s0.0809 6.8025-0.083 6.9784c-0.16388 0.17587-3.5853 3.9999-3.8194 3.9853-0.24311-0.0152-2.274-1.9359-2.274-1.9359"/>
     <path d="m91.693 117.42s6.8025-0.0809 6.9784 0.083c0.17587 0.16388 3.9999 3.5853 3.9853 3.8194-0.0152 0.24311-1.9359 2.274-1.9359 2.274"/>
    </g>
    <g stroke="#94bae1" stroke-width=".9">
     <path d="m158.47 122.4s-0.41551-1.5598 0.77174-2.8018c1.1872-1.2421 2.6974-0.92576 2.6974-0.92576"/>
     <path d="m168.69 131.88s-0.41551-1.5598 0.77174-2.8018c1.1872-1.2421 2.6974-0.92576 2.6974-0.92576"/>
     <path d="m178.64 122.4s-0.41551-1.5598 0.77174-2.8018c1.1872-1.2421 2.6974-0.92576 2.6974-0.92576"/>
     <path d="m168.69 111.91s-0.41551-1.5598 0.77174-2.8018c1.1872-1.2421 2.6974-0.92576 2.6974-0.92576"/>
    </g>
   </g>
   <g fill="#1d499b">
    <path d="m162.98 117.43s1.4001 1.0582 1.9784 2.1472c0.34421 0.64833 0.68445 1.8671 0.68801 2.581 4e-3 0.71388-0.2433 1.4535-1.0078 2.2422-0.77294 0.79736-1.7483 1.1374-2.4643 1.1681-0.71506 0.0307-1.9148-0.10696-2.5321-0.37688-1.2347-0.53984-1.8091-1.3015-1.8091-1.3015s0.73952 1.6178 2.1999 2.2564c0.73021 0.31927 1.5679 0.4975 2.4962 0.38094 0.9283-0.11657 1.9016-0.52553 2.8027-1.4552 0.90959-0.93833 1.2841-1.9611 1.2793-2.918-5e-3 -0.95685-0.266-1.8756-0.72092-2.6073-0.90985-1.4634-2.9103-2.117-2.9103-2.117z" color="#000000" style="-inkscape-stroke:none"/>
    <path d="m182.82 117.43s1.4001 1.0582 1.9784 2.1472c0.34421 0.64833 0.68445 1.8671 0.68801 2.581 4e-3 0.71388-0.2433 1.4535-1.0078 2.2422-0.77294 0.79736-1.7483 1.1374-2.4643 1.1681-0.71506 0.0307-1.9148-0.10696-2.5321-0.37688-1.2347-0.53984-1.8091-1.3015-1.8091-1.3015s0.73952 1.6178 2.1999 2.2564c0.73021 0.31927 1.5679 0.4975 2.4962 0.38094 0.9283-0.11657 1.9016-0.52553 2.8027-1.4552 0.90959-0.93833 1.2841-1.9611 1.2793-2.918-5e-3 -0.95685-0.266-1.8756-0.72092-2.6073-0.90985-1.4634-2.9103-2.117-2.9103-2.117z" color="#000000" style="-inkscape-stroke:none"/>
    <path d="m173.33 126.8s1.4001 1.0582 1.9784 2.1472c0.34421 0.64833 0.68445 1.8671 0.68801 2.581 4e-3 0.71388-0.2433 1.4535-1.0078 2.2422-0.77294 0.79736-1.7483 1.1374-2.4643 1.1681-0.71506 0.0307-1.9148-0.10696-2.5321-0.37688-1.2347-0.53984-1.8091-1.3015-1.8091-1.3015s0.73952 1.6178 2.1999 2.2564c0.73021 0.31927 1.5679 0.4975 2.4962 0.38094 0.9283-0.11657 1.9016-0.52553 2.8027-1.4552 0.90959-0.93833 1.2841-1.9611 1.2793-2.918-5e-3 -0.95685-0.266-1.8756-0.72092-2.6073-0.90985-1.4634-2.9103-2.117-2.9103-2.117z" color="#000000" style="-inkscape-stroke:none"/>
    <path d="m173.33 107.25s1.4001 1.0582 1.9784 2.1472c0.34421 0.64833 0.68445 1.8671 0.68801 2.581 4e-3 0.71388-0.2433 1.4535-1.0078 2.2422-0.77294 0.79736-1.7483 1.1374-2.4643 1.1681-0.71506 0.0307-1.9148-0.10696-2.5321-0.37688-1.2347-0.53984-1.8091-1.3015-1.8091-1.3015s0.73952 1.6178 2.1999 2.2564c0.73021 0.31927 1.5679 0.4975 2.4962 0.38094 0.9283-0.11657 1.9016-0.52553 2.8027-1.4552 0.90959-0.93833 1.2841-1.9611 1.2793-2.918-5e-3 -0.95685-0.266-1.8756-0.72092-2.6073-0.90985-1.4634-2.9103-2.117-2.9103-2.117z" color="#000000" style="-inkscape-stroke:none"/>
   </g>
   <path d="m186.88 149.42c0.21232-0.60476 4.2735-6.2799 5.1118-6.3057 0.83839-0.0258 5.1142 9.2328 6.7637 14.454 0.82476 2.6107 1.7469 6.0062 1.9767 9.7068s0.24451 3.559-0.17607 7.5873c-0.42058 4.0283-1.3846 10.101-3.504 14.62s-8.0756 12.575-9.0433 11.799 1.8355-2.702 3.9524-7.2792c2.1168-4.5773 3.4764-9.8956 3.9887-14.84 0.51223-4.9449 0.0458-10.889-1.2229-16.073-0.64568-2.6381-1.9317-5.7044-3.5308-8.4136s-4.4223-4.9531-4.3161-5.2554z" fill="#94bae1"/>
   <path d="m98.105 155.46c-0.44907 0.0736-6.5724 14.847-8.6728 21.779s-4.4465 18.469-4.1991 19.623c0.24731 1.1537 2.5728 3.8413 3.6603 3.4874 0.54372-0.17693 0.79088-3.6442 1.4807-8.0376 0.68986-4.3934 1.8224-9.7128 2.8355-13.35 1.0131-3.6373 2.4566-8.3642 4.0127-12.936 0.78152-2.296 1.675-4.6151 2.4697-6.3204 0.79476-1.7052 1.4908-2.7967 1.4175-2.8674-0.29337-0.28313-2.5554-1.4513-3.0045-1.3777z" fill="#94bae1"/>
  </g>
  <path transform="translate(-3.51 -67.3)" d="m80.041 73.217c-22.391 8.7e-5 -40.543 18.621-40.543 41.592 7.7e-5 22.97 18.152 41.592 40.543 41.592 9.4829-0.0178 18.66-3.4451 25.934-9.6857l-2.0154 1.2113s43.696 47.435 50.57 51.932 14.601 0.38142 18.422-4.6287c3.8207-5.0101 3.999-18.973-1.4537-22.754s-56.38-37.318-56.38-37.318l-0.76253 1.7473c4.0599-6.6183 6.2188-14.277 6.2291-22.096-7e-5 -22.97-18.152-41.592-40.543-41.592zm0 13.725c15.002-8.2e-5 27.164 12.476 27.164 27.867 2.4e-4 15.391-12.162 27.867-27.164 27.867-15.003 8e-5 -27.164-12.477-27.164-27.867 3.7e-5 -15.39 12.162-27.867 27.164-27.867z" clip-path="url(#clipPath44197)" fill="#fff" fill-opacity=".8"/>
  <path d="m76.827 67.8c-0.56853 0.21347-10.567 0.26516-10.87-2.2e-4 -0.21697-0.18975-13.754-20.292-13.516-20.59s10.664-0.0102 11.206 0 6.2206 9.0811 6.8344 9.097c0.61384 0.0159 12.732-27.829 13.223-28.164s10.611-0.08675 11.011 0.25902c0.4004 0.34577-17.319 39.185-17.887 39.398z" fill="#fff" fill-opacity=".8"/>
 </g>
 <defs>
  <clipPath id="clipPath44197">
   <path d="m35.297 67.305c-11.949 0.22199-18.027 7.369-21.61 15.726-1.2041 2.8089-1.5888 6.8296-2.297 9.8025-2.0188 8.4745-4.9963 16.398-6.057 25.044-1.4723 12.002-3.1913 24.711-0.0894 36.276 1.792 6.6809 4.4451 13.805 11.072 15.789 6.8835 2.0606 13.56 0.49289 19.606-4.2147 9.0321-7.0327 20.256-29.358 21.234-29.444 1.017-0.0886 11.838-0.0894 11.838-0.0894s3.1225 1e-3 6.1877 0.0155c-1.5294 5.3936-3.0475 10.743-3.7414 16.4-1.4723 12.002-3.1907 24.712-0.08888 36.276 1.792 6.6809 4.4451 13.805 11.072 15.789 6.8835 2.0605 13.56 0.49289 19.606-4.2147 9.0321-7.0327 20.256-29.358 21.234-29.444 1.017-0.0886 11.838-0.0894 11.838-0.0894s10.82 7.9e-4 11.838 0.0894c0.97795 0.0852 12.203 22.411 21.235 29.444 6.046 4.7076 12.723 6.2753 19.606 4.2147 6.6265-1.9836 9.2797-9.1078 11.072-15.789 3.1019-11.564 1.3829-24.274-0.0894-36.276-1.0607-8.6468-4.0382-16.569-6.057-25.044-0.70822-2.9729-1.0929-6.9936-2.297-9.8025-3.6979-8.6262-10.055-15.964-22.785-15.726-10.507 0.19663-12.746 5.1284-14.877 5.1826-1.3056 0.0332-17.645 0-17.645 0s-2.7712 4e-3 -4.6033 7e-3c-1.2524-4.7774-2.7329-9.4943-3.9-14.394-0.70822-2.9729-1.0929-6.9936-2.297-9.8025-3.6979-8.6262-10.055-15.964-22.784-15.726-10.507 0.19663-12.746 5.1284-14.877 5.1826-1.3056 0.03325-17.645 0-17.645 0s-16.339 0.03325-17.645 0c-2.1308-0.0542-4.3697-4.986-14.877-5.1826-0.39779-0.0074-0.78915-0.0072-1.1746 0z" fill="#5688c7"/>
  </clipPath>
 </defs>
</svg>
